<svg version="1.1" id="Layer_1" xmlns="http://www.w3.org/2000/svg" xmlns:xlink="http://www.w3.org/1999/xlink" x="0px" y="0px"
	 width="100%" viewBox="0 0 1024 1024" enable-background="new 0 0 1024 1024" xml:space="preserve">
<path fill="#000000" opacity="1.000000" stroke="none" 
	d="
M650.561523,176.403748 
	C700.032227,213.071091 731.170166,261.327148 741.758606,321.504425 
	C749.404968,364.961060 747.483826,408.370605 731.378296,450.316772 
	C721.774841,475.328369 707.987793,497.785095 690.614441,518.050232 
	C667.348877,545.188354 639.099365,565.716614 606.353394,579.921875 
	C584.058960,589.593201 560.671631,594.898865 536.450745,597.448242 
	C514.524841,599.755981 492.840576,599.069153 471.361359,594.844238 
	C438.763062,588.432373 408.720154,575.776733 381.701691,556.166748 
	C349.548218,532.829834 324.284088,503.622955 306.505859,468.099243 
	C295.152771,445.414032 288.504364,421.302826 285.522827,396.088593 
	C280.798492,356.135681 285.271240,317.318970 299.773132,279.827576 
	C316.392303,236.862473 343.808502,202.011002 381.242767,175.310013 
	C410.026611,154.779190 442.233521,142.241058 477.157196,136.536957 
	C532.189026,127.548553 583.752075,137.516388 632.202393,164.594986 
	C638.438232,168.080170 644.261780,172.303009 650.561523,176.403748 
M436.480225,163.043854 
	C409.862885,173.337830 386.243866,188.460236 365.816254,208.278732 
	C331.825195,241.256241 310.278442,281.055542 301.755951,327.787354 
	C297.569794,350.741394 296.434418,373.917969 299.659180,396.919189 
	C304.979248,434.865509 319.117798,469.377563 343.275452,499.508759 
	C374.812378,538.844055 414.501495,565.935486 463.471497,578.433228 
	C497.057434,587.004761 531.029114,587.148071 564.801575,579.000671 
	C611.840942,567.652710 650.823914,543.210144 681.944092,506.132141 
	C710.859802,471.680634 727.937195,432.179199 731.443298,387.337738 
	C733.916443,355.706360 730.527283,324.580627 720.007263,294.339600 
	C688.131287,202.708420 599.301880,142.189392 500.821503,149.110077 
	C478.893372,150.651062 457.659821,154.747360 436.480225,163.043854 
z"/>
<path fill="#000000" opacity="1.000000" stroke="none" 
	d="
M707.770142,731.659790 
	C706.655579,733.651855 706.472229,736.231140 703.840027,736.036560 
	C701.366150,735.853638 701.113464,733.403442 700.324951,731.650391 
	C693.565796,716.623352 686.845581,701.578857 680.093628,686.548584 
	C679.498169,685.223022 679.196106,683.698914 677.603882,682.582275 
	C676.333008,687.560120 676.464722,692.473083 676.374512,697.371826 
	C676.218323,705.859619 676.457031,714.356995 675.528809,722.825806 
	C675.063232,727.074097 675.569153,730.930481 680.816895,732.050537 
	C682.102478,732.324890 682.737915,733.408081 682.488770,734.725769 
	C682.264465,735.911743 681.235413,736.207520 680.189392,736.207886 
	C674.861206,736.209717 669.532654,736.200134 664.205017,736.136719 
	C663.139526,736.124023 662.281067,735.558777 662.045959,734.426270 
	C661.808289,733.281921 662.369690,732.260254 663.385681,732.062256 
	C669.487183,730.873474 669.352539,725.848022 669.536011,721.517761 
	C670.177185,706.384644 670.470154,691.236877 670.909790,676.095093 
	C671.015564,672.452393 671.049805,668.926575 666.244873,668.117310 
	C664.906189,667.891846 664.382080,666.790039 664.522583,665.476318 
	C664.686279,663.945312 665.868225,663.713196 667.081909,663.708557 
	C671.578186,663.691345 676.074951,663.750549 680.571045,663.716614 
	C683.395020,663.695312 684.018372,665.864380 684.902649,667.836060 
	C691.714050,683.022766 698.529785,698.207458 705.360718,713.385376 
	C705.747498,714.244751 706.280334,715.038330 707.243164,716.745483 
	C711.043823,707.373779 714.543091,698.812744 717.988159,690.229980 
	C721.087219,682.509094 724.204651,674.793823 727.146118,667.012634 
	C728.045166,664.634399 729.358154,663.567810 731.917358,663.622864 
	C736.077759,663.712341 740.243225,663.579163 744.406311,663.521667 
	C745.954102,663.500305 747.584473,663.430359 747.822693,665.487915 
	C748.014771,667.146484 746.823853,667.845947 745.416748,668.138550 
	C740.650879,669.129456 740.106628,672.719482 740.418335,676.579590 
	C741.689209,692.314087 743.025757,708.043762 744.455872,723.764526 
	C744.781250,727.341187 745.779785,730.729065 749.994629,731.746826 
	C751.272217,732.055298 752.106506,732.808533 751.956970,734.203003 
	C751.764465,735.998047 750.318054,736.118042 748.975342,736.128784 
	C741.980652,736.184937 734.985657,736.200195 727.990723,736.205383 
	C726.794373,736.206299 725.508301,736.039917 725.187805,734.649597 
	C724.816406,733.038452 725.857300,732.168396 727.279480,731.778809 
	C731.376404,730.656616 732.024780,727.531433 731.819702,723.960754 
	C731.009827,709.860535 730.167480,695.762146 728.509888,681.457520 
	C721.649414,698.074890 714.788940,714.692200 707.770142,731.659790 
z"/>
<path fill="#000000" opacity="1.000000" stroke="none" 
	d="
M267.906189,707.665039 
	C259.858398,706.956665 259.338989,707.508545 259.756714,715.338379 
	C259.907288,718.161499 259.897186,720.994263 259.917297,723.822998 
	C259.944550,727.649231 260.099365,731.314392 265.155365,731.961731 
	C266.455780,732.128235 267.123779,733.206421 266.874603,734.556763 
	C266.659271,735.724060 265.690918,736.146606 264.643494,736.153259 
	C257.320892,736.199646 249.997986,736.219177 242.675308,736.201111 
	C241.427368,736.198059 240.345795,735.716431 240.249756,734.241211 
	C240.175018,733.093323 240.866745,732.278442 241.888367,732.026611 
	C246.824295,730.809998 246.998703,726.953735 246.999680,722.993347 
	C247.003586,707.179871 247.003555,691.366333 246.985413,675.552856 
	C246.981461,672.106018 246.843277,668.755371 242.311676,668.012756 
	C240.792175,667.763794 240.087097,666.490662 240.414597,664.995056 
	C240.739029,663.513550 242.087540,663.562927 243.253845,663.618469 
	C254.388458,664.148315 265.506561,662.352722 276.665314,663.644714 
	C290.256653,665.218384 297.747253,673.218079 297.322906,686.346497 
	C297.107300,693.017151 294.114258,698.111145 288.270264,701.421753 
	C286.139526,702.628784 283.933319,703.702637 281.321716,705.067078 
	C287.027740,712.868225 291.571075,720.991394 297.634369,728.066772 
	C299.075836,729.748901 300.862732,730.901062 303.173645,731.128479 
	C304.589691,731.267822 305.817230,731.884827 305.901306,733.519409 
	C305.994659,735.334656 304.748779,736.043518 303.212555,736.603943 
	C297.703308,738.613708 289.134827,736.121582 284.639862,731.014648 
	C279.778168,725.491089 276.179413,719.076416 272.120056,712.988586 
	C270.924377,711.195435 270.016785,709.195190 267.906189,707.665039 
M279.976593,696.513489 
	C283.886353,692.356262 285.427551,687.446655 284.194336,681.877930 
	C282.115021,672.488159 276.128815,668.799377 264.681366,669.210999 
	C261.270599,669.333618 259.932953,670.628540 259.928925,673.966614 
	C259.921112,680.432739 259.605347,686.898804 259.618835,693.364441 
	C259.633881,700.591431 259.972015,700.741760 267.299347,700.727417 
	C271.763641,700.718628 275.797150,699.578430 279.976593,696.513489 
z"/>
<path fill="#000000" opacity="1.000000" stroke="none" 
	d="
M156.896851,703.629883 
	C156.162109,678.121094 172.107895,661.100159 195.670151,661.744629 
	C216.891708,662.325134 232.563507,679.027527 232.152161,700.625793 
	C231.740875,722.221008 216.437302,737.033447 194.969421,737.464966 
	C176.528961,737.835571 159.603241,726.146606 156.896851,703.629883 
M177.126572,675.657104 
	C167.817184,690.250671 168.231018,705.342773 175.928101,720.163818 
	C180.047501,728.096069 187.670639,732.052612 196.700485,731.505371 
	C205.965256,730.943848 212.523224,726.087219 215.772232,717.100769 
	C220.253479,704.705994 219.615372,692.456177 213.916489,680.764526 
	C206.876175,666.320801 188.735901,663.697998 177.126572,675.657104 
z"/>
<path fill="#000000" opacity="1.000000" stroke="none" 
	d="
M938.301880,675.781555 
	C953.316467,695.229004 945.817566,725.128052 925.804993,733.834778 
	C911.516479,740.051208 897.285645,739.439270 884.729614,729.834045 
	C872.096985,720.170044 868.699890,706.561951 871.947876,691.390320 
	C874.968140,677.282593 883.206482,667.279053 897.407471,663.400574 
	C913.279724,659.065735 926.964233,663.252563 938.301880,675.781555 
M931.730774,691.738892 
	C931.376404,688.560608 930.316345,685.583679 929.024414,682.695190 
	C924.439880,672.445007 916.438904,667.467590 905.779602,668.170898 
	C896.260986,668.798889 889.403076,674.856873 886.240479,685.432251 
	C883.175659,695.680298 883.728027,705.831177 887.385742,715.787231 
	C891.210693,726.198547 900.128662,732.106201 910.876526,731.659851 
	C920.396362,731.264465 928.545227,724.290710 931.174866,713.838318 
	C932.931885,706.854370 933.481873,699.730835 931.730774,691.738892 
z"/>
<path fill="#000000" opacity="1.000000" stroke="none" 
	d="
M125.172119,708.342285 
	C120.509575,709.497742 116.149445,708.336853 111.289452,708.917053 
	C110.806267,715.291443 110.811066,721.558533 111.471008,727.805237 
	C111.700859,729.980896 113.498894,731.188843 115.598068,731.640076 
	C117.210526,731.986694 117.958153,732.909912 117.631012,734.465027 
	C117.342606,735.835938 116.146782,736.152710 114.912277,736.154236 
	C108.247208,736.162537 101.581917,736.175537 94.917183,736.124634 
	C93.574593,736.114319 92.171440,735.892334 91.906120,734.153564 
	C91.633369,732.365967 92.887833,731.959167 94.247559,731.548340 
	C97.765503,730.485413 98.580345,727.572693 98.593834,724.457153 
	C98.665260,707.960266 98.667847,691.462769 98.593452,674.965942 
	C98.578766,671.709167 98.003502,668.560852 93.974442,667.678528 
	C92.496857,667.354919 91.587517,666.376953 91.955727,664.773621 
	C92.295181,663.295349 93.607254,663.260925 94.772362,663.355530 
	C105.738876,664.247131 116.681877,662.318176 127.705040,663.568115 
	C143.743805,665.386902 152.953094,676.902771 149.241058,691.743408 
	C147.172485,700.013489 141.326752,704.591675 133.424103,706.797729 
	C130.873215,707.509888 128.210846,707.822693 125.172119,708.342285 
M133.030182,697.504456 
	C141.270187,686.289429 136.852432,672.919189 123.850800,669.748535 
	C120.742920,668.990601 117.580711,669.309509 114.436607,669.373657 
	C111.816292,669.427063 111.094040,671.181763 111.077332,673.394287 
	C111.015930,681.524353 111.013565,689.654785 110.949532,697.784851 
	C110.929298,700.353149 111.969116,701.716370 114.658890,702.060547 
	C121.130890,702.888794 127.238136,702.406738 133.030182,697.504456 
z"/>
<path fill="#000000" opacity="1.000000" stroke="none" 
	d="
M411.907471,715.886719 
	C410.904144,713.131042 408.870392,713.053894 406.828796,713.034424 
	C400.337036,712.972412 393.845093,712.926758 387.353241,712.873718 
	C387.020538,712.871033 386.615723,712.730042 386.365936,712.870056 
	C381.151031,715.793091 381.777283,721.567627 380.003235,726.150269 
	C378.924591,728.936401 379.939117,731.037354 383.042297,731.803528 
	C384.295288,732.112854 385.210022,732.766052 385.004639,734.216431 
	C384.760101,735.942810 383.397980,736.178589 382.019836,736.187134 
	C376.859467,736.219055 371.698730,736.214844 366.538239,736.197449 
	C365.141632,736.192749 363.819031,735.945557 363.549316,734.228088 
	C363.272919,732.468262 364.389160,731.970642 365.845093,731.632629 
	C369.781586,730.718811 371.233734,727.461243 372.562317,724.189026 
	C380.197052,705.385742 387.797180,686.568481 395.415436,667.758484 
	C396.268555,665.652222 396.639954,663.177856 399.816467,663.143005 
	C403.091827,663.107117 403.919525,665.546570 404.882935,667.821472 
	C412.537598,685.896362 420.132446,703.996582 427.799652,722.066101 
	C429.666901,726.466858 431.055908,731.395203 437.107635,731.944824 
	C438.190063,732.043152 438.854614,732.865234 438.790466,734.043884 
	C438.712921,735.468140 437.821960,736.140198 436.498993,736.147156 
	C428.676147,736.188171 420.853058,736.204346 413.030182,736.184021 
	C411.955536,736.181213 411.118866,735.635681 410.973602,734.435425 
	C410.836151,733.299622 411.347321,732.264221 412.369324,732.074158 
	C417.953888,731.034851 416.415375,727.447815 415.251129,724.102539 
	C414.323273,721.436462 413.136963,718.860291 411.907471,715.886719 
M407.081512,705.548218 
	C404.799103,697.254028 401.132599,689.557800 396.996704,680.765320 
	C393.028717,689.681519 390.041870,697.621826 387.294281,706.586731 
	C394.284332,706.592163 400.493652,707.333374 407.081512,705.548218 
z"/>
<path fill="#000000" opacity="1.000000" stroke="none" 
	d="
M559.068420,663.891479 
	C563.126343,662.440613 564.771057,664.570801 566.074585,667.688477 
	C573.647339,685.799561 581.298340,703.877991 588.919434,721.968872 
	C590.778137,726.380981 591.960205,731.372742 598.064331,731.944397 
	C599.212341,732.051941 599.598511,733.133362 599.570374,734.207825 
	C599.531128,735.704163 598.501831,736.189087 597.217407,736.194885 
	C589.559509,736.229431 581.901428,736.240784 574.243408,736.238586 
	C572.985291,736.238281 571.939392,735.868530 571.764038,734.366516 
	C571.588135,732.859924 572.533386,732.216553 573.753174,731.973267 
	C577.760620,731.173706 577.560364,728.705811 576.647827,725.568481 
	C572.982605,712.967285 573.032288,712.953857 560.025818,712.927185 
	C558.693970,712.924438 557.361572,712.867981 556.030396,712.891541 
	C552.594849,712.952454 548.281250,710.916626 545.935852,713.554260 
	C542.783020,717.099915 541.997559,722.230591 541.168579,726.989258 
	C540.797302,729.120605 541.285706,730.995483 543.712097,731.737732 
	C545.074646,732.154541 546.261108,732.818176 545.972900,734.502686 
	C545.673889,736.250244 544.183472,736.275940 542.855957,736.283020 
	C537.695007,736.310547 532.533569,736.299683 527.372742,736.258545 
	C526.033813,736.247864 524.552429,736.199158 524.414368,734.360962 
	C524.308044,732.945068 525.314697,732.176025 526.521606,731.984314 
	C530.910461,731.287109 532.238403,727.729553 533.634888,724.368164 
	C541.549561,705.317444 549.382935,686.232971 557.259766,667.166504 
	C557.698853,666.103760 558.277832,665.098877 559.068420,663.891479 
M548.857178,704.758667 
	C548.780212,705.713379 549.162720,706.509094 550.134033,706.518311 
	C556.018799,706.574341 561.904358,706.546204 568.639221,706.546204 
	C565.851440,697.494568 562.596191,689.795227 558.342346,681.481873 
	C554.414734,689.480896 551.716919,696.767761 548.857178,704.758667 
z"/>
<path fill="#000000" opacity="1.000000" stroke="none" 
	d="
M814.569092,677.633911 
	C806.891846,690.999329 806.365784,704.429199 814.162659,717.245361 
	C824.084412,733.554321 845.724487,733.568542 856.611511,717.813843 
	C857.617615,716.357910 858.289246,714.425293 860.677979,715.078796 
	C862.976074,724.266968 861.719116,727.507202 853.857910,731.878845 
	C834.930725,742.404541 805.955994,737.509644 797.510376,713.360046 
	C789.249817,689.739746 802.901001,660.431702 837.403137,662.103516 
	C843.393982,662.393799 849.106018,664.279602 854.770203,666.378662 
	C858.740417,667.849976 860.218445,670.381958 860.254333,674.234070 
	C860.286499,677.693420 860.261047,681.153381 860.261047,684.588806 
	C856.262451,686.401917 855.610596,683.236694 854.390137,681.035767 
	C848.265198,669.990479 836.386292,665.515808 824.533569,669.825623 
	C820.493103,671.294739 817.364136,673.970825 814.569092,677.633911 
z"/>
<path fill="#000000" opacity="1.000000" stroke="none" 
	d="
M344.354980,724.494995 
	C344.425934,728.174866 345.242523,730.909790 348.920715,731.715271 
	C350.156128,731.985901 351.169342,732.510376 351.066772,733.982300 
	C350.965576,735.433533 349.874603,735.991333 348.647308,736.005432 
	C341.486328,736.087952 334.324493,736.111145 327.162933,736.106018 
	C326.127777,736.105286 325.165253,735.698914 324.984650,734.480469 
	C324.781097,733.106934 325.472595,732.205200 326.751831,731.873230 
	C330.755585,730.834167 331.687103,727.919556 331.683197,724.253479 
	C331.665436,707.594055 331.629913,690.934082 331.776947,674.275757 
	C331.808472,670.703003 330.792725,669.274353 326.983063,669.248291 
	C317.013214,669.180115 315.692322,669.978760 312.104370,679.631897 
	C311.540894,681.147888 311.761688,683.872559 309.055542,683.390503 
	C306.223083,682.885925 307.633514,680.435059 307.691559,678.848206 
	C307.806763,675.699829 308.612579,672.549255 308.484924,669.426025 
	C308.293488,664.743958 310.297913,663.517090 314.735626,663.578918 
	C330.559052,663.799438 346.389099,663.795776 362.212738,663.584167 
	C366.535950,663.526367 368.325867,665.007019 368.208099,669.269043 
	C368.102386,673.095642 368.296295,676.929749 368.306030,680.760742 
	C368.309448,682.113037 368.237030,683.566833 366.372803,683.667053 
	C364.888580,683.746887 364.458191,682.557190 364.071442,681.447144 
	C363.854095,680.823425 363.800110,680.144775 363.629242,679.502441 
	C361.261047,670.597900 355.655640,667.309448 346.787018,669.405457 
	C343.572754,670.165161 344.361694,672.584961 344.355804,674.574768 
	C344.306915,691.067444 344.341003,707.560364 344.354980,724.494995 
z"/>
<path fill="#000000" opacity="1.000000" stroke="none" 
	d="
M469.999115,736.282959 
	C462.167328,736.259033 454.835419,736.254456 447.503815,736.205811 
	C446.057373,736.196228 444.230255,736.583252 443.714691,734.660217 
	C443.177307,732.655823 444.805023,732.164551 446.306091,731.740234 
	C449.727966,730.773193 450.406281,727.865417 450.430298,725.034485 
	C450.575745,707.880615 451.110840,690.720337 450.009003,673.575378 
	C449.831848,670.819153 448.859619,668.749084 445.893555,668.094116 
	C444.269958,667.735596 442.991241,666.836365 443.396851,664.999023 
	C443.787964,663.227173 445.443359,663.647156 446.723206,663.637024 
	C453.387878,663.584106 460.052856,663.562256 466.717621,663.522217 
	C467.913879,663.515076 469.181488,663.490417 469.599213,664.902771 
	C470.078461,666.523254 469.128174,667.519775 467.691650,667.860352 
	C463.452942,668.865479 463.041992,672.038208 463.048157,675.579285 
	C463.076508,691.908936 463.129913,708.238831 463.037964,724.567932 
	C463.012604,729.067322 464.941956,731.010803 469.388733,730.707336 
	C471.379486,730.571472 473.386444,730.679749 475.385956,730.663757 
	C482.450043,730.607239 487.991028,727.981506 491.187775,721.344604 
	C491.982239,719.695190 492.865967,718.086731 493.757721,716.486755 
	C494.370575,715.387085 495.241913,714.604492 496.597137,715.187866 
	C497.734344,715.677368 497.730896,716.724670 497.525299,717.744812 
	C496.441498,723.122681 495.325653,728.494080 494.247040,733.872925 
	C493.752502,736.339355 491.865173,736.307739 489.995270,736.307861 
	C483.496552,736.308472 476.997833,736.294983 469.999115,736.282959 
z"/>
<path fill="#000000" opacity="1.000000" stroke="none" 
	d="
M623.302856,687.005493 
	C623.307007,699.817749 623.416809,712.132751 623.257874,724.444214 
	C623.199402,728.971802 625.083679,730.889587 629.497070,730.682434 
	C632.815857,730.526733 636.163391,730.706238 639.457092,730.353088 
	C646.447449,729.603516 649.974121,724.646729 652.809448,718.912476 
	C653.498779,717.518311 653.904480,715.218079 656.059204,715.788879 
	C658.717651,716.493042 657.386353,718.906128 657.130920,720.449158 
	C656.426758,724.703369 655.186401,728.869080 654.487854,733.123962 
	C654.063843,735.707214 652.727295,736.347473 650.408203,736.333801 
	C636.098206,736.249329 621.787842,736.234863 607.477722,736.174011 
	C605.980713,736.167664 604.258179,736.203247 604.064819,734.151611 
	C603.902527,732.429626 605.360474,732.071289 606.656677,731.670471 
	C609.658020,730.742188 610.709717,728.569702 610.706299,725.570618 
	C610.686768,708.598022 610.697144,691.625305 610.747314,674.652832 
	C610.757324,671.262939 609.642456,668.859070 606.082581,667.987061 
	C604.668640,667.640747 603.702576,666.679443 604.064758,665.055908 
	C604.399414,663.556213 605.676941,663.614319 606.855530,663.609009 
	C613.677185,663.578125 620.498840,663.542969 627.320496,663.526855 
	C628.327454,663.524475 629.408081,663.592590 629.847656,664.699585 
	C630.249512,665.711365 630.059143,666.997253 629.075684,667.315918 
	C621.789490,669.677002 623.411499,675.700195 623.300964,681.015564 
	C623.262939,682.845154 623.299438,684.676392 623.302856,687.005493 
z"/>
<path fill="#000000" opacity="1.000000" stroke="none" 
	d="
M775.962280,663.645874 
	C778.784241,663.652405 781.115417,663.636353 783.445801,663.674133 
	C784.783569,663.695801 786.233093,663.646851 786.388489,665.544067 
	C786.501526,666.924133 785.793701,667.815918 784.503357,668.077332 
	C780.451416,668.898132 780.080261,671.914185 779.876465,675.270264 
	C778.926941,690.902588 779.565674,706.538147 779.736145,722.170166 
	C779.780640,726.249878 779.548767,730.800171 785.125122,732.095093 
	C786.157654,732.334778 786.669312,733.362000 786.475586,734.475769 
	C786.270020,735.658447 785.335510,736.076355 784.275452,736.083252 
	C776.951721,736.131165 769.627808,736.160767 762.304077,736.146484 
	C761.246948,736.144409 760.337158,735.602173 760.110901,734.471741 
	C759.826721,733.052063 760.684570,732.198059 761.921570,731.932312 
	C766.399475,730.970520 766.889954,727.665222 766.887085,723.925720 
	C766.875061,708.109314 766.895630,692.292908 766.932617,676.476501 
	C766.941528,672.660278 766.866638,669.005310 761.991394,668.001526 
	C760.723389,667.740417 760.100220,666.573181 760.280823,665.299866 
	C760.494751,663.790344 761.824829,663.716125 762.984985,663.701355 
	C767.146667,663.648315 771.309082,663.659180 775.962280,663.645874 
z"/>
<path fill="#000000" opacity="1.000000" stroke="none" 
	d="
M816.081909,861.828186 
	C816.074829,862.962036 816.083801,863.628967 816.055786,864.294373 
	C815.973022,866.261169 815.627747,868.103333 813.054810,867.923584 
	C810.727356,867.760986 810.714539,865.909668 810.704285,864.223511 
	C810.660645,857.060486 810.593750,849.896484 810.685364,842.734680 
	C810.708313,840.943176 809.794312,838.511902 812.745911,837.860535 
	C815.590637,837.232666 816.975037,838.890747 818.187805,841.122864 
	C820.468140,845.319885 822.183777,849.856812 825.568176,854.163940 
	C828.030151,849.447754 830.340759,845.252747 832.421082,840.946411 
	C833.596741,838.512634 835.196777,837.321045 837.924622,837.825989 
	C840.853638,838.368164 840.225525,840.723022 840.245728,842.583801 
	C840.321838,849.579468 840.297913,856.576721 840.250549,863.572937 
	C840.237305,865.520203 840.554993,868.003052 837.532959,867.872192 
	C835.083496,867.766052 834.939148,865.661011 834.926819,863.771790 
	C834.896545,859.148376 834.916931,854.524658 833.951538,849.628723 
	C832.093689,852.855103 830.322083,856.135132 828.356018,859.294189 
	C825.942322,863.172668 824.329529,863.124207 822.009583,859.121277 
	C820.262573,856.107117 818.699646,852.986267 816.081055,849.945435 
	C816.081055,853.750488 816.081055,857.555542 816.081909,861.828186 
z"/>
<path fill="#000000" opacity="1.000000" stroke="none" 
	d="
M492.474609,783.746338 
	C500.103485,786.214539 501.421417,788.724670 498.885315,796.052673 
	C498.251709,797.883484 499.062042,798.773010 499.896729,800.031006 
	C504.084564,806.342346 501.715302,812.455994 494.215088,813.807800 
	C490.339264,814.506348 486.263184,814.114258 482.276917,814.171326 
	C480.122070,814.202209 479.326111,812.737915 479.295868,810.925049 
	C479.162689,802.938416 479.098999,794.950073 479.081909,786.962219 
	C479.077209,784.774658 480.260956,783.630249 482.544403,783.669861 
	C485.706329,783.724731 488.869629,783.701965 492.474609,783.746338 
M496.223022,803.918762 
	C493.852905,799.540222 489.732605,800.685059 486.557648,801.754272 
	C483.888428,802.653137 484.853821,805.860657 485.280182,809.002625 
	C489.217255,807.314880 494.784424,811.951050 496.223022,803.918762 
M490.972168,795.640808 
	C493.915039,795.332031 495.515381,793.441956 494.270355,790.913391 
	C492.647919,787.618408 489.049469,788.592712 486.216003,788.906677 
	C483.539246,789.203369 484.250427,791.715698 484.532776,793.321167 
	C485.136871,796.755371 488.068237,795.396790 490.972168,795.640808 
z"/>
<path fill="#000000" opacity="1.000000" stroke="none" 
	d="
M443.058167,862.970520 
	C439.463959,858.150513 436.093140,853.618774 431.911652,847.997192 
	C431.911652,854.009644 431.971863,858.873413 431.882172,863.734375 
	C431.846100,865.689148 431.944305,868.076721 428.992859,868.015869 
	C426.180725,867.958069 426.709686,865.622498 426.648743,863.913269 
	C426.411591,857.261536 426.177856,850.606812 426.144257,843.952209 
	C426.133453,841.810547 425.105103,838.888184 428.146515,837.947266 
	C431.232056,836.992798 432.468811,839.750366 433.935852,841.696350 
	C437.811218,846.837036 441.637207,852.014954 446.636627,856.894775 
	C446.636627,851.846191 446.600800,846.797302 446.656006,841.749268 
	C446.675476,839.967468 446.423370,837.805054 449.226685,837.863464 
	C451.881470,837.918701 451.891235,840.013672 451.914581,841.818726 
	C452.005096,848.811523 452.034882,855.806091 451.982635,862.799133 
	C451.968506,864.691589 452.590942,867.097412 450.112732,867.975220 
	C447.582794,868.871338 446.123962,867.026306 444.778717,865.258118 
	C444.274658,864.595520 443.780365,863.925415 443.058167,862.970520 
z"/>
<path fill="#000000" opacity="1.000000" stroke="none" 
	d="
M683.124939,793.895813 
	C685.466248,796.929260 687.600281,799.674805 690.219788,803.044861 
	C691.312561,797.681335 690.550232,792.966919 690.822632,788.317139 
	C690.933167,786.430664 690.329163,783.905945 693.368042,783.843628 
	C696.352478,783.782410 696.093140,786.209656 696.114014,788.170288 
	C696.188354,795.160339 696.233398,802.151184 696.203186,809.141357 
	C696.195679,810.874268 696.867188,813.101318 694.642151,813.958191 
	C692.114136,814.931641 690.620056,813.070923 689.288879,811.316711 
	C685.277405,806.030334 681.305298,800.714050 676.247681,795.534180 
	C676.247681,800.215698 676.282410,804.897522 676.231079,809.578491 
	C676.209717,811.521362 676.576172,813.970215 673.609619,814.020081 
	C670.704712,814.069031 670.795288,811.711548 670.791260,809.707092 
	C670.776672,802.383545 670.797791,795.059753 670.859802,787.736511 
	C670.872070,786.280579 670.696289,784.557373 672.551270,783.971069 
	C674.364136,783.398132 675.790771,784.199768 676.891052,785.649048 
	C678.903320,788.299438 680.909119,790.954651 683.124939,793.895813 
z"/>
<path fill="#000000" opacity="1.000000" stroke="none" 
	d="
M586.679199,862.790894 
	C586.669128,855.989319 586.593201,849.661621 586.697754,843.336914 
	C586.728210,841.494568 585.724731,839.015686 588.220398,838.059265 
	C591.079407,836.963562 592.394470,839.367859 593.761475,841.211121 
	C597.790222,846.643433 601.760376,852.119202 606.675354,858.838257 
	C606.675354,852.255188 606.615051,847.170288 606.709534,842.088135 
	C606.740723,840.410461 606.116089,838.096924 608.920837,837.886536 
	C611.886719,837.664124 611.995239,839.949097 612.009949,841.945496 
	C612.063721,849.270203 612.028992,856.596191 611.950989,863.920837 
	C611.933838,865.531799 612.080994,867.429626 610.004822,868.065369 
	C607.942871,868.696594 606.513855,867.629822 605.334412,866.040344 
	C601.275574,860.570801 597.198120,855.115112 592.034851,849.737366 
	C592.034851,854.239685 592.104553,858.743591 592.001526,863.243530 
	C591.958496,865.123291 592.468323,867.759277 589.609375,867.930176 
	C586.342102,868.125610 586.815430,865.369141 586.679199,862.790894 
z"/>
<path fill="#000000" opacity="1.000000" stroke="none" 
	d="
M662.145508,861.851807 
	C657.585876,867.455322 647.155823,870.369202 640.986145,868.128662 
	C639.196899,867.478882 638.920166,866.114685 638.916199,864.565918 
	C638.896790,856.904968 638.919678,849.244080 638.907166,841.583130 
	C638.902771,838.897827 640.142639,837.588867 642.883118,837.712158 
	C644.378662,837.779419 645.880432,837.695679 647.379333,837.703735 
	C661.570618,837.779541 668.265625,848.436035 662.145508,861.851807 
M647.650024,843.129089 
	C645.367065,843.053467 644.294922,844.155701 644.311768,846.440796 
	C644.343628,850.765503 644.317139,855.090637 644.333496,859.415466 
	C644.338684,860.784180 644.516541,862.012268 646.067017,862.653259 
	C651.107300,864.737061 657.406738,861.391724 658.631653,855.917603 
	C660.355347,848.215088 656.898499,843.859619 647.650024,843.129089 
z"/>
<path fill="#000000" opacity="1.000000" stroke="none" 
	d="
M207.956879,837.683350 
	C217.784012,837.752014 221.529816,840.061523 222.602020,846.205872 
	C223.392578,850.736206 221.028000,853.802307 218.019073,856.601135 
	C218.632416,860.697937 222.466827,863.333435 222.764435,867.497498 
	C219.590378,869.045227 217.547058,867.949097 216.041626,865.213013 
	C214.998444,863.317078 213.854111,861.476624 212.820053,859.575928 
	C211.800171,857.701355 210.242310,857.078979 208.223480,857.427917 
	C205.891663,857.831055 206.215225,859.718079 206.092529,861.334595 
	C205.966934,862.989197 205.984283,864.663818 205.728592,866.296692 
	C205.518021,867.641418 204.475357,868.153931 203.141174,868.092163 
	C201.794342,868.029785 200.807556,867.410095 200.799377,866.027283 
	C200.748154,857.369507 200.422897,848.691223 200.922684,840.062256 
	C201.151337,836.114441 205.171158,838.267517 207.956879,837.683350 
M210.444382,843.191528 
	C205.741837,843.900757 205.166824,845.251404 206.901367,851.961304 
	C210.461075,851.547852 215.252487,853.924438 216.640594,848.352356 
	C217.599670,844.502686 214.718475,843.226135 210.444382,843.191528 
z"/>
<path fill="#000000" opacity="1.000000" stroke="none" 
	d="
M228.721512,797.009460 
	C228.720642,796.180542 228.685257,795.844299 228.724640,795.517029 
	C229.190430,791.645935 226.769913,785.959290 229.880890,784.279114 
	C233.923294,782.095886 239.629623,783.134399 244.472946,784.174561 
	C250.260651,785.417358 253.686752,793.477112 249.752487,798.057373 
	C245.914841,802.525146 247.409882,805.604736 249.779373,809.396423 
	C250.452682,810.473816 251.316788,811.612305 250.748886,813.344482 
	C248.437210,814.728516 246.487381,814.049988 244.968445,811.867371 
	C244.025055,810.511719 243.241257,809.032959 242.496811,807.553528 
	C241.252670,805.080872 239.932693,802.721924 236.564545,803.416748 
	C233.030670,804.145813 234.608017,807.068298 234.305237,809.120056 
	C234.003113,811.167542 234.722748,813.978699 231.475037,813.896790 
	C228.286346,813.816528 228.873123,811.012878 228.816101,808.961426 
	C228.710052,805.145142 228.745285,801.324951 228.721512,797.009460 
M238.469299,797.841797 
	C239.299118,797.806091 240.137558,797.834167 240.957214,797.723389 
	C243.812744,797.336975 245.732620,795.746399 245.471710,792.806213 
	C245.185730,789.583252 242.664734,788.430725 239.750732,788.480286 
	C237.661041,788.515808 234.492889,787.346069 234.431168,791.051697 
	C234.388443,793.616821 232.557205,797.511658 238.469299,797.841797 
z"/>
<path fill="#000000" opacity="1.000000" stroke="none" 
	d="
M656.905396,808.776550 
	C650.651794,814.727356 644.011169,815.929504 638.155090,812.421509 
	C632.486816,809.026001 629.520264,801.729797 631.129578,795.142395 
	C632.812439,788.254333 638.340576,783.713928 645.423096,783.402771 
	C655.262451,782.970398 662.627197,793.058655 659.708069,803.131714 
	C659.164917,805.006042 658.012878,806.703918 656.905396,808.776550 
M649.359741,808.204224 
	C650.747314,807.563904 651.867310,806.618286 652.751709,805.363037 
	C656.299133,800.327942 655.077820,793.274902 650.065918,789.952026 
	C645.661316,787.031982 640.315125,788.307007 637.700195,793.048889 
	C635.513123,797.014954 635.714661,801.016174 638.145447,804.844910 
	C640.663025,808.810364 644.404785,809.384399 649.359741,808.204224 
z"/>
<path fill="#000000" opacity="1.000000" stroke="none" 
	d="
M533.609497,798.201050 
	C532.317200,799.942871 531.220703,801.372498 530.002747,802.960510 
	C531.684753,806.291077 533.380554,809.649048 535.165405,813.183167 
	C531.950378,815.016052 530.067810,813.886780 528.599426,811.493896 
	C527.293823,809.366394 526.093140,807.174622 524.792969,805.043701 
	C523.657837,803.183350 521.844971,802.933167 519.965271,803.416077 
	C518.006653,803.919128 518.551636,805.724060 518.260986,807.133606 
	C517.758362,809.571045 519.922058,813.905518 515.541931,813.804321 
	C510.855469,813.696106 513.011414,809.195618 512.867554,806.634338 
	C512.531677,800.655945 512.894409,794.640625 512.637451,788.654724 
	C512.466187,784.663940 514.066711,783.210815 517.905212,783.566528 
	C520.053589,783.765625 522.233337,783.600220 524.397278,783.659180 
	C532.937317,783.891479 536.738159,789.652100 533.609497,798.201050 
M518.720825,789.385803 
	C517.481079,797.280273 518.867371,798.983643 525.321228,797.707703 
	C527.842590,797.209290 529.101196,795.620789 529.314514,793.317322 
	C529.521301,791.085571 528.153503,789.521301 526.101196,788.833069 
	C523.876160,788.086853 521.562683,788.067505 518.720825,789.385803 
z"/>
<path fill="#000000" opacity="1.000000" stroke="none" 
	d="
M556.159668,867.404785 
	C548.919250,863.132507 545.888123,856.819824 547.379517,849.783630 
	C548.852661,842.833496 553.264099,838.422241 559.550171,837.740906 
	C565.994568,837.042480 570.914917,839.570557 574.223145,845.093567 
	C577.539062,850.629333 577.108887,857.909241 573.146729,862.917908 
	C568.770081,868.450623 563.010010,869.346436 556.159668,867.404785 
M554.624084,859.766174 
	C558.858215,863.755615 562.691101,864.399475 566.565796,861.772156 
	C570.431885,859.150452 572.022095,853.521545 570.204163,848.893005 
	C568.562500,844.713257 564.483521,842.693542 559.738281,843.202759 
	C554.613464,843.752563 549.395142,851.952637 554.624084,859.766174 
z"/>
<path fill="#000000" opacity="1.000000" stroke="none" 
	d="
M789.422119,808.929443 
	C791.795471,809.294617 792.907593,810.274902 792.404114,812.394531 
	C792.000000,814.095703 790.574219,814.132690 789.231812,814.143066 
	C784.735657,814.177917 780.238403,814.123169 775.743103,814.195862 
	C773.185364,814.237244 772.088806,812.949036 772.084412,810.553223 
	C772.070557,802.893188 772.087036,795.233093 772.089478,787.573059 
	C772.090271,784.947693 773.219116,783.595642 776.024048,783.670776 
	C780.184570,783.782288 784.350525,783.673950 788.513306,783.726501 
	C790.185669,783.747620 792.036865,783.741394 792.112488,786.146057 
	C792.198486,788.881287 790.100525,788.849121 788.291687,788.900574 
	C784.990295,788.994446 781.684387,788.927307 778.374268,788.927307 
	C777.522766,791.091919 777.831055,793.036560 777.953918,795.068359 
	C780.430603,796.682190 783.184631,795.567566 785.733948,795.996277 
	C787.434509,796.282227 789.175842,796.462524 789.128601,798.773865 
	C789.079895,801.154907 787.290283,801.196594 785.580750,801.255005 
	C784.083008,801.306152 782.583862,801.331604 781.085205,801.334106 
	C778.575256,801.338379 778.119690,802.943298 778.108887,804.999939 
	C778.098083,807.045227 778.536926,808.708557 781.003296,808.781311 
	C783.665649,808.859985 786.330444,808.858948 789.422119,808.929443 
z"/>
<path fill="#000000" opacity="1.000000" stroke="none" 
	d="
M687.900513,868.214844 
	C674.024841,867.989258 675.079163,870.510803 674.932495,855.597778 
	C674.888245,851.103455 674.966370,846.608032 674.931824,842.113525 
	C674.908203,839.049866 676.133667,837.523987 679.419495,837.668457 
	C683.573792,837.851135 687.741394,837.716614 691.902710,837.765625 
	C693.530884,837.784851 694.919861,838.270691 694.993347,840.240967 
	C695.066956,842.213074 693.708374,842.844604 692.093079,842.926331 
	C689.268738,843.069275 686.436829,843.071777 683.607788,843.110901 
	C681.342407,843.142212 680.339966,844.237305 680.331177,846.528931 
	C680.322266,848.876892 681.405518,849.868408 683.662354,849.830994 
	C684.993530,849.808899 686.328674,849.794128 687.656738,849.869446 
	C689.586304,849.978699 692.138733,849.553040 692.019714,852.546631 
	C691.903320,855.477783 689.306946,854.855469 687.424988,855.031433 
	C686.434509,855.124084 685.426025,855.101624 684.430359,855.046936 
	C681.469116,854.884521 680.267273,856.204346 680.295715,859.208740 
	C680.323730,862.169373 681.813477,862.934021 684.382202,862.842590 
	C686.543823,862.765686 688.711121,862.778809 690.874084,862.829285 
	C692.672485,862.871216 694.865479,862.582458 695.037598,865.215698 
	C695.233337,868.209106 692.849731,868.020386 690.875671,868.173828 
	C690.047485,868.238281 689.211731,868.203430 687.900513,868.214844 
z"/>
<path fill="#000000" opacity="1.000000" stroke="none" 
	d="
M211.847672,788.934937 
	C208.934814,788.941833 206.457123,788.941833 204.069031,788.941833 
	C202.240997,794.766052 202.866211,795.724487 208.342789,795.916565 
	C209.504807,795.957336 210.672424,795.952515 211.826752,796.072144 
	C213.564865,796.252197 214.591064,797.190125 214.453720,799.028320 
	C214.322052,800.791016 212.959732,801.038452 211.581970,801.117188 
	C210.089645,801.202515 208.589050,801.278748 207.097824,801.217712 
	C204.435394,801.108765 203.129440,802.111023 203.153458,804.976379 
	C203.176575,807.738159 204.277161,808.917053 207.028229,808.829712 
	C209.683762,808.745544 212.346069,808.830627 215.004257,808.891663 
	C216.700378,808.930603 217.957504,809.647156 217.955292,811.525513 
	C217.953049,813.454041 216.562714,814.070129 214.936325,814.095520 
	C210.284088,814.168274 205.630417,814.170410 200.977386,814.160950 
	C198.711212,814.156372 197.702667,812.908264 197.701385,810.692749 
	C197.696854,802.881348 197.692368,795.069824 197.640274,787.258606 
	C197.623413,784.729004 198.816833,783.662109 201.297028,783.695801 
	C204.952713,783.745422 208.615616,783.561829 212.264069,783.727722 
	C214.177826,783.814697 217.160202,782.626038 217.366562,785.990845 
	C217.599091,789.782227 214.332138,788.524048 211.847672,788.934937 
z"/>
<path fill="#000000" opacity="1.000000" stroke="none" 
	d="
M261.118469,812.746826 
	C264.088165,803.642822 267.230316,794.899780 270.339722,786.145020 
	C270.952484,784.419617 271.958405,783.264832 273.894470,783.188049 
	C275.837036,783.110962 276.976288,784.158813 277.632385,785.880127 
	C281.052032,794.852112 284.474243,803.823120 288.006042,813.084167 
	C284.901611,814.524292 282.587952,814.435974 281.810455,811.243835 
	C280.378387,805.364197 275.732758,807.546265 272.110718,806.926270 
	C268.375641,806.286926 267.182190,808.462952 266.254181,811.429688 
	C265.433563,814.053162 263.684570,814.764038 261.118469,812.746826 
M275.536713,801.071594 
	C278.717926,797.328979 274.849121,795.120789 273.375092,792.252014 
	C272.397034,795.085571 271.418976,797.919189 270.284698,801.205322 
	C272.385925,801.205322 273.669647,801.205322 275.536713,801.071594 
z"/>
<path fill="#000000" opacity="1.000000" stroke="none" 
	d="
M183.931824,846.148438 
	C186.655716,853.419312 189.224854,860.332642 191.860672,867.425354 
	C188.545685,868.708008 186.434158,868.269409 185.633286,865.465149 
	C184.559280,861.704407 182.160583,860.621277 178.534485,860.879456 
	C175.110962,861.123169 171.416168,860.342468 170.273590,865.147644 
	C169.671417,867.680054 167.628021,868.272156 165.366318,867.898010 
	C164.085922,866.494202 164.720627,865.236938 165.181122,864.013733 
	C167.986008,856.562622 170.789413,849.110779 173.640289,841.677185 
	C174.403656,839.686707 175.015884,837.652344 177.929016,837.623474 
	C180.839523,837.594727 181.479477,839.547119 182.245697,841.582886 
	C182.771439,842.979858 183.267654,844.387817 183.931824,846.148438 
M174.844513,853.057800 
	C175.428055,858.312561 178.777374,854.699402 181.206299,855.479919 
	C180.921997,851.758301 179.427551,849.129272 177.908646,845.772888 
	C176.768860,848.471069 175.937759,850.438416 174.844513,853.057800 
z"/>
<path fill="#000000" opacity="1.000000" stroke="none" 
	d="
M362.580261,789.510864 
	C365.610840,797.620605 368.498047,805.368652 371.364777,813.061707 
	C368.032623,815.194397 366.348358,813.672424 365.527313,811.228271 
	C363.860413,806.266357 359.874908,807.056702 356.083557,806.886780 
	C352.729828,806.736450 350.774384,808.053345 349.866211,811.294312 
	C349.326782,813.219177 347.934814,814.739685 345.794525,813.926514 
	C343.071930,812.892151 344.776001,810.857849 345.332275,809.321716 
	C347.824310,802.440247 350.297424,795.546021 353.062225,788.772644 
	C353.967224,786.555603 354.049591,783.156006 357.899445,783.389038 
	C361.580994,783.612000 361.350586,786.894226 362.580261,789.510864 
M358.779663,794.402649 
	C358.369995,793.814636 358.397339,792.800659 357.085419,792.863159 
	C356.402832,795.547791 354.250488,797.852234 354.799744,801.191956 
	C356.689301,801.535095 358.728760,802.321594 359.997437,800.829834 
	C361.687408,798.842651 359.633545,796.903320 358.779663,794.402649 
z"/>
<path fill="#000000" opacity="1.000000" stroke="none" 
	d="
M724.029297,790.029541 
	C727.102844,797.763855 730.028809,805.142090 733.008362,812.655212 
	C730.179993,814.956238 727.930847,814.271484 727.109619,811.364441 
	C725.442810,805.463989 720.837402,807.380920 716.972595,806.859070 
	C713.419006,806.379333 712.367371,808.438477 711.506226,811.154114 
	C710.898987,813.068970 709.620239,814.533691 707.449280,813.814697 
	C704.629272,812.880798 706.223694,810.839355 706.775574,809.292236 
	C709.113281,802.738770 711.453674,796.182251 714.016663,789.715454 
	C714.973206,787.302124 714.934753,783.767700 718.912170,783.758118 
	C722.893311,783.748535 722.575989,787.404907 724.029297,790.029541 
M718.310059,793.614441 
	C717.263550,796.000977 716.036438,798.334290 715.982605,801.127930 
	C718.141296,801.947632 720.137024,802.061646 722.417419,800.803894 
	C721.543457,798.044189 721.404053,795.069946 718.310059,793.614441 
z"/>
<path fill="#000000" opacity="1.000000" stroke="none" 
	d="
M395.889526,849.998840 
	C397.153290,846.505371 398.137299,843.312500 399.483551,840.280457 
	C400.930664,837.021301 405.159424,836.455444 406.439819,839.514465 
	C410.256958,848.634216 413.579163,857.961182 417.100616,867.222717 
	C413.422028,868.963989 411.484772,867.902466 410.741486,864.938110 
	C409.852692,861.393555 407.456360,860.742004 404.335510,860.941589 
	C400.989166,861.155579 397.102875,859.933167 395.644562,864.655029 
	C395.010956,866.706482 393.763153,868.600830 391.328400,867.540344 
	C388.351105,866.243530 390.580719,864.108459 391.142487,862.482117 
	C392.552795,858.399292 394.210693,854.401917 395.889526,849.998840 
M402.278229,847.541992 
	C401.566711,850.035278 400.117920,852.330933 400.166687,855.264160 
	C402.397186,855.917786 404.517670,856.105408 407.516724,854.882874 
	C404.799683,852.523926 406.586365,848.225464 402.278229,847.541992 
z"/>
<path fill="#000000" opacity="1.000000" stroke="none" 
	d="
M771.265259,860.899353 
	C771.940369,863.152405 773.145081,864.852844 772.954834,867.301697 
	C770.704712,868.515137 768.472717,868.797363 767.619629,865.754211 
	C765.946960,859.787964 761.207703,861.379700 757.109070,860.890564 
	C753.230408,860.427612 752.938538,863.231262 751.971497,865.639160 
	C750.988647,868.086487 749.338074,868.889709 746.183167,867.124390 
	C747.785339,862.584900 749.361389,857.948120 751.060120,853.356689 
	C752.614197,849.156433 754.291382,845.001526 755.933411,840.834106 
	C756.634155,839.055664 757.537964,837.656860 759.856079,837.707275 
	C762.179626,837.757751 762.971497,839.236145 763.651611,841.008728 
	C766.147705,847.514160 768.647888,854.018188 771.265259,860.899353 
M757.424438,855.426453 
	C759.193237,855.790222 760.959839,856.101257 762.899597,855.169189 
	C762.680908,851.959167 761.590027,849.141724 759.307617,845.970093 
	C758.563049,849.518921 756.254639,851.815430 757.424438,855.426453 
z"/>
<path fill="#000000" opacity="1.000000" stroke="none" 
	d="
M850.188965,866.789551 
	C853.265015,857.721680 856.516113,849.014832 859.698792,840.283142 
	C860.281128,838.685425 861.169983,837.780090 862.930054,837.744080 
	C864.538513,837.711243 866.006531,837.990662 866.653687,839.622620 
	C870.250000,848.691467 873.791931,857.781921 877.401367,866.989868 
	C873.791626,869.110901 872.036865,867.759644 870.954041,864.797180 
	C870.117188,862.507446 869.165955,860.222778 866.150574,860.807800 
	C862.567993,861.502869 857.837158,859.090759 855.912598,864.569641 
	C855.005798,867.150879 853.498962,869.112793 850.188965,866.789551 
M864.912048,849.005859 
	C864.460510,848.210205 864.515381,847.065308 863.100098,846.658325 
	C862.097656,849.485535 860.200623,851.997620 860.194702,855.573425 
	C862.488892,855.598511 864.542480,856.177124 866.623718,855.261719 
	C867.006348,853.106567 865.647400,851.461548 864.912048,849.005859 
z"/>
<path fill="#000000" opacity="1.000000" stroke="none" 
	d="
M480.037842,845.065552 
	C482.580933,851.628906 484.988159,857.829834 487.365784,864.041992 
	C487.883667,865.395081 488.865814,866.973267 486.742401,867.807068 
	C484.957397,868.507996 483.122711,868.012756 482.648346,866.132874 
	C480.922363,859.292358 475.493439,861.130249 470.932159,860.867554 
	C467.872406,860.691345 467.836609,863.360718 466.923737,865.177124 
	C466.079163,866.857605 465.219299,868.810059 462.931793,868.018799 
	C460.202423,867.074707 461.700500,864.970459 462.268066,863.418884 
	C464.838898,856.391357 467.473328,849.385315 470.223145,842.426208 
	C471.026703,840.392578 471.338806,837.748169 474.573517,837.742737 
	C477.798431,837.737305 477.984314,840.405823 478.973022,842.388550 
	C479.342651,843.129700 479.588867,843.932373 480.037842,845.065552 
M473.645721,848.011780 
	C473.122345,850.371948 471.210205,852.384583 471.823242,855.242859 
	C473.885437,855.705566 476.739288,856.950745 477.265442,854.232910 
	C477.705292,851.961060 477.359772,848.540039 473.645721,848.011780 
z"/>
<path fill="#000000" opacity="1.000000" stroke="none" 
	d="
M136.845367,843.172119 
	C136.516266,839.175354 137.821396,837.339661 141.642593,837.666992 
	C144.452286,837.907715 147.338211,837.535828 150.101486,837.983826 
	C155.952606,838.932495 159.334564,843.261108 158.985962,848.816223 
	C158.664062,853.945740 154.693558,858.176392 149.077072,858.119568 
	C144.054947,858.068909 141.491806,859.311584 142.295273,864.775574 
	C142.561264,866.584595 141.891235,868.151917 139.614227,868.063171 
	C137.428772,867.977905 136.893112,866.417419 136.882278,864.614197 
	C136.840302,857.627014 136.848816,850.639587 136.845367,843.172119 
M142.535706,845.142639 
	C142.486847,846.458191 142.423477,847.773438 142.392517,849.089417 
	C142.346237,851.056152 142.679657,852.894897 145.150528,852.903442 
	C147.860809,852.912842 151.065811,853.684875 152.529358,850.418396 
	C153.521072,848.205139 153.443176,845.574951 151.135025,844.223083 
	C148.521454,842.692444 145.560791,842.435913 142.535706,845.142639 
z"/>
<path fill="#000000" opacity="1.000000" stroke="none" 
	d="
M333.491913,856.632202 
	C334.855011,860.386536 336.720703,863.582825 337.001709,867.297424 
	C333.800568,869.205627 332.035370,867.715210 331.200653,864.952515 
	C329.488037,859.284058 324.785980,861.614380 321.177643,860.934448 
	C317.807678,860.299377 316.886200,862.497437 316.027466,865.016357 
	C315.337250,867.040771 314.108521,868.890076 311.648010,867.868774 
	C308.991638,866.766113 310.702301,864.736389 311.268890,863.198486 
	C313.973053,855.858337 316.835327,848.576477 319.537262,841.235596 
	C320.277649,839.223938 321.005066,837.640198 323.586975,837.645569 
	C326.235352,837.651001 326.846588,839.461182 327.575806,841.367615 
	C329.479126,846.343567 331.420685,851.304993 333.491913,856.632202 
M324.612091,847.690796 
	C324.196594,847.066528 323.617981,845.839172 322.996277,847.160950 
	C321.842468,849.613892 320.302765,852.054016 320.757812,855.234131 
	C322.751373,855.759644 324.622803,856.063904 326.813263,855.197083 
	C326.931396,852.668945 325.709259,850.502258 324.612091,847.690796 
z"/>
<path fill="#000000" opacity="1.000000" stroke="none" 
	d="
M571.078613,810.788635 
	C571.584473,812.593872 571.554077,813.845093 569.601807,813.968994 
	C567.491150,814.102905 565.948303,813.147217 565.501831,811.107300 
	C564.525024,806.644592 561.484802,806.341736 557.636902,806.317139 
	C553.784973,806.292542 551.227661,807.169067 550.317505,811.214355 
	C549.869507,813.205322 548.609314,814.621460 546.352600,813.861511 
	C543.909851,813.038879 545.028625,811.222961 545.569275,809.726562 
	C548.223450,802.381348 550.878235,795.035767 553.626343,787.725464 
	C554.422363,785.607910 555.005737,783.104126 558.150208,783.228210 
	C561.009094,783.341003 561.436401,785.686951 562.197937,787.641968 
	C565.153442,795.229675 568.043213,802.842957 571.078613,810.788635 
M555.110413,800.977783 
	C557.131348,802.067566 559.104126,801.971863 561.305298,800.846497 
	C560.731812,797.839478 559.950562,795.155396 557.839844,792.749146 
	C555.946289,795.244202 555.342773,797.785583 555.110413,800.977783 
z"/>
<path fill="#000000" opacity="1.000000" stroke="none" 
	d="
M250.833557,861.192566 
	C247.403412,860.072510 244.293839,861.086243 241.172272,861.162781 
	C238.591522,861.226013 238.420151,863.678589 237.644989,865.435486 
	C236.809006,867.330200 235.474228,868.596313 233.382950,867.738159 
	C230.925308,866.729797 232.524429,864.892639 233.018646,863.521973 
	C235.775574,855.875366 238.664841,848.276672 241.457687,840.642883 
	C242.078522,838.945862 242.882233,837.692383 244.937851,837.718079 
	C246.501038,837.737549 248.032272,837.811646 248.679672,839.512634 
	C252.193710,848.746216 255.662537,857.997009 259.221130,867.438599 
	C252.581833,869.708557 253.338043,863.745605 250.833557,861.192566 
M247.959991,855.041504 
	C248.432877,851.762695 246.735870,849.240295 245.110916,845.738586 
	C243.781250,849.364868 242.773468,852.113342 241.773651,854.840088 
	C243.821854,856.156982 245.631134,855.600281 247.959991,855.041504 
z"/>
<path fill="#000000" opacity="1.000000" stroke="none" 
	d="
M302.585693,805.771545 
	C302.326508,807.979431 302.265869,809.807922 302.110016,811.628235 
	C301.976257,813.190125 301.055878,814.058044 299.479065,814.006226 
	C297.953613,813.956055 296.887878,813.135010 296.875732,811.559326 
	C296.810303,803.078613 296.802734,794.597412 296.813263,786.116333 
	C296.814911,784.787903 297.565216,783.845093 298.930908,783.820435 
	C303.231689,783.742554 307.597809,782.989685 311.799683,784.401855 
	C316.767670,786.071533 319.240356,790.106384 318.679077,795.236267 
	C318.156616,800.011414 314.440216,803.568604 309.427490,804.264771 
	C307.192596,804.575195 304.720825,803.555298 302.585693,805.771545 
M304.476288,788.825684 
	C300.737762,789.477478 302.569489,792.441833 302.301270,794.408997 
	C302.067749,796.121826 301.838104,798.392761 304.414673,798.725891 
	C306.845703,799.040222 309.492889,799.464233 311.485291,797.465942 
	C313.203766,795.742249 313.276062,793.475769 312.278656,791.437683 
	C310.835175,788.488159 307.824005,789.084473 304.476288,788.825684 
z"/>
<path fill="#000000" opacity="1.000000" stroke="none" 
	d="
M807.723267,791.269592 
	C807.839233,794.150574 809.948120,794.616089 811.780945,795.314697 
	C813.797119,796.083130 815.890747,796.652710 817.891541,797.456177 
	C821.410767,798.869507 822.970032,801.823425 822.969910,805.344543 
	C822.969727,808.936646 821.032288,811.698120 817.672058,813.137268 
	C813.087769,815.100769 808.562134,814.765747 804.297180,812.162354 
	C802.724060,811.202087 801.094055,810.084961 802.499207,807.793884 
	C803.698792,805.838013 805.196777,806.311584 806.774536,807.208740 
	C808.850708,808.389221 811.064392,808.943848 813.469543,808.777222 
	C815.319946,808.648926 816.736511,807.954590 817.093628,806.010620 
	C817.424438,804.209534 816.191406,803.153259 814.795959,802.563416 
	C812.506104,801.595398 810.042114,801.034302 807.765564,800.040588 
	C803.652710,798.245361 801.438782,795.170776 802.443298,790.526306 
	C803.417969,786.019714 806.453552,783.824524 810.979675,783.568176 
	C813.857117,783.405212 816.645630,783.794373 819.177673,785.229126 
	C820.587280,786.027893 822.442383,786.858826 821.483521,788.977478 
	C820.541870,791.058105 818.930603,791.090576 816.916565,790.120422 
	C813.802246,788.620361 810.466736,786.593262 807.723267,791.269592 
z"/>
<path fill="#000000" opacity="1.000000" stroke="none" 
	d="
M379.045654,809.097046 
	C380.137848,806.583252 381.659302,805.782410 383.899384,807.128662 
	C384.325653,807.384705 384.760681,807.659424 385.229004,807.807068 
	C388.405304,808.808594 392.507965,810.438965 393.962952,806.506348 
	C395.398682,802.625916 390.853760,802.340088 388.288971,801.198120 
	C386.623260,800.456482 384.816895,799.960815 383.276642,799.021851 
	C380.116211,797.095215 378.894165,794.095520 379.466888,790.480103 
	C380.017914,787.001465 382.224091,784.779724 385.537323,783.910950 
	C389.192993,782.952393 392.847504,783.300903 396.166138,785.222961 
	C397.492432,785.991150 399.584137,786.720154 398.593903,788.892822 
	C397.662201,790.936829 396.015503,791.049316 394.011719,790.003601 
	C392.567993,789.250122 390.898712,788.812439 389.278656,788.544006 
	C387.436249,788.238708 385.966644,789.129211 385.386780,790.928955 
	C384.764984,792.858643 385.793396,794.149780 387.522736,794.859009 
	C389.979462,795.866455 392.488098,796.746643 394.953766,797.733154 
	C398.433411,799.125427 400.299133,801.782959 400.096283,805.474243 
	C399.888855,809.248901 397.924591,812.005249 394.258423,813.418396 
	C388.739471,815.545593 383.040344,814.091980 379.045654,809.097046 
z"/>
<path fill="#000000" opacity="1.000000" stroke="none" 
	d="
M369.286682,837.692017 
	C372.588348,837.512329 375.405762,837.737000 377.914703,839.296509 
	C379.257629,840.131226 381.270081,840.789307 380.353149,842.985901 
	C379.461792,845.121338 377.797150,845.355591 375.853577,844.193359 
	C374.211243,843.211304 372.369446,843.141113 370.524384,843.191345 
	C368.889771,843.235840 367.545441,843.852173 367.063416,845.521118 
	C366.524048,847.388550 367.798157,848.301880 369.241211,848.916077 
	C371.690491,849.958740 374.199524,850.860107 376.658081,851.881897 
	C380.093170,853.309692 382.019623,856.008118 381.937347,859.638062 
	C381.850922,863.450989 379.784454,866.292542 376.082672,867.541992 
	C371.383057,869.128296 366.865265,868.538757 362.763733,865.693054 
	C361.544708,864.847290 360.259430,863.760620 361.521088,861.992981 
	C362.537659,860.568726 363.845215,860.167297 365.421783,861.084900 
	C367.481812,862.283813 369.660095,862.990051 372.080750,862.852722 
	C374.040558,862.741577 375.889557,862.268433 376.254517,860.073242 
	C376.588898,858.062073 374.979523,857.137573 373.380768,856.512695 
	C371.522614,855.786438 369.592468,855.246582 367.721466,854.550781 
	C363.588043,853.013550 360.760895,850.252808 361.192749,845.617188 
	C361.606110,841.179993 364.223053,838.330505 369.286682,837.692017 
z"/>
<path fill="#000000" opacity="1.000000" stroke="none" 
	d="
M578.513062,801.294312 
	C577.777222,794.283630 579.391907,788.627319 585.610168,785.262695 
	C591.266174,782.202332 596.833130,782.839417 602.008484,786.540466 
	C603.398926,787.534851 605.532471,788.665955 603.977783,790.851257 
	C602.649963,792.717651 600.906006,792.168518 599.222900,790.878418 
	C595.750427,788.216919 591.972412,787.551208 588.121887,789.986694 
	C584.406738,792.336548 583.850952,796.065979 584.191528,800.073608 
	C584.816528,807.427856 592.090332,811.212463 598.446777,807.453003 
	C599.571228,806.787903 600.559509,805.892700 601.750000,804.999268 
	C605.431458,806.798706 605.379822,808.786865 602.370544,811.200928 
	C593.632446,818.210938 581.798950,813.490784 578.513062,801.294312 
z"/>
<path fill="#000000" opacity="1.000000" stroke="none" 
	d="
M505.267395,843.888916 
	C499.761536,848.774414 498.890808,854.555908 502.604156,859.554199 
	C505.611664,863.602539 510.685028,864.083069 516.418091,860.652222 
	C518.044495,859.678833 519.503418,859.059082 520.799744,860.714783 
	C522.120544,862.401794 520.529480,863.413574 519.499146,864.439026 
	C515.289124,868.629333 508.127655,869.641052 502.806763,866.818909 
	C497.340515,863.919739 493.863312,856.514099 495.012573,850.218689 
	C496.268738,843.337463 500.875885,838.423645 506.885437,837.729309 
	C511.493164,837.197083 515.902100,837.680298 519.487915,841.064270 
	C520.595398,842.109497 521.745361,843.287781 520.504150,844.920654 
	C519.329773,846.465576 517.959534,846.060608 516.570679,845.109863 
	C513.164795,842.778625 509.483154,842.429688 505.267395,843.888916 
z"/>
<path fill="#000000" opacity="1.000000" stroke="none" 
	d="
M444.591553,788.634338 
	C445.789062,785.358154 446.840546,782.428101 451.070465,784.672852 
	C450.986725,788.591614 448.774323,791.657410 447.533936,795.027954 
	C445.522766,800.493103 443.447540,805.938538 441.231812,811.323303 
	C439.816986,814.761719 436.463013,815.325439 434.945709,812.179138 
	C430.698029,803.371216 427.482880,794.134094 424.279205,784.904114 
	C427.830322,782.634766 429.323730,784.278564 430.355408,786.927856 
	C432.761597,793.106750 435.136169,799.297974 437.862122,806.361633 
	C440.268524,800.032776 442.364624,794.520020 444.591553,788.634338 
z"/>
<path fill="#000000" opacity="1.000000" stroke="none" 
	d="
M163.863541,786.691040 
	C163.789688,783.849609 165.521683,783.734802 167.232788,783.724609 
	C172.873993,783.691040 178.515472,783.710022 184.156830,783.699646 
	C185.989578,783.696289 187.566406,784.108826 187.574921,786.335205 
	C187.585281,789.042908 185.415726,788.494507 183.939941,788.352112 
	C179.211029,787.895935 177.988968,790.102905 178.271896,794.491028 
	C178.612808,799.778381 178.365524,805.105347 178.322083,810.414795 
	C178.308426,812.081726 178.331589,813.927185 175.956436,814.049255 
	C173.405731,814.180359 172.969589,812.357605 172.939941,810.419128 
	C172.858734,805.110474 172.906876,799.799683 172.817230,794.491211 
	C172.787262,792.716370 173.269791,790.831055 172.124725,789.241150 
	C169.541687,787.740234 165.933960,790.523193 163.863541,786.691040 
z"/>
<path fill="#000000" opacity="1.000000" stroke="none" 
	d="
M288.169861,868.295044 
	C284.034729,868.641479 282.650299,866.943970 282.730408,863.334961 
	C282.885040,856.368042 282.754791,849.395081 282.808289,842.425171 
	C282.823059,840.497559 282.457245,838.047852 285.408264,837.967773 
	C288.750305,837.877075 288.253143,840.565002 288.282898,842.632935 
	C288.359253,847.942627 288.436127,853.256531 288.303467,858.563538 
	C288.223328,861.769531 289.508484,863.124084 292.703796,862.966553 
	C295.185577,862.844177 297.681976,862.916626 300.167633,863.012512 
	C301.821564,863.076294 303.075012,863.789612 303.086151,865.695190 
	C303.097839,867.692749 301.725647,868.186096 300.098755,868.212769 
	C296.282684,868.275269 292.465576,868.272888 288.169861,868.295044 
z"/>
<path fill="#000000" opacity="1.000000" stroke="none" 
	d="
M761.261169,813.442932 
	C755.940308,814.643250 750.939209,813.941345 745.967285,814.166016 
	C743.251099,814.288757 741.954163,812.997681 741.964417,810.315247 
	C741.993042,802.830200 741.968994,795.344360 742.086731,787.860718 
	C742.114502,786.100220 742.124817,783.864319 744.744385,783.857849 
	C747.825439,783.850220 747.318970,786.351807 747.345764,788.239014 
	C747.421204,793.560913 747.507568,798.888733 747.336182,804.206055 
	C747.225708,807.635376 748.507507,809.123169 751.985168,808.870789 
	C754.300903,808.702820 756.643799,808.760681 758.966492,808.877869 
	C761.818726,809.021790 762.867249,810.436951 761.261169,813.442932 
z"/>
<path fill="#000000" opacity="1.000000" stroke="none" 
	d="
M711.208557,856.797241 
	C710.653015,861.506165 712.282410,863.557739 716.758911,863.008667 
	C718.393982,862.808167 720.072205,862.945374 721.730652,862.952698 
	C723.665527,862.961243 725.519531,863.146545 725.487549,865.755432 
	C725.458130,868.158997 723.659424,868.189209 721.968384,868.205627 
	C717.822510,868.245789 713.675537,868.195312 709.529907,868.248108 
	C706.755432,868.283447 705.699219,866.851379 705.708679,864.235474 
	C705.736328,856.606323 705.709717,848.977051 705.716980,841.347778 
	C705.718689,839.534607 706.144958,837.927124 708.388245,837.972107 
	C710.555115,838.015564 711.086304,839.586365 711.106201,841.400818 
	C711.160767,846.375977 711.177612,851.351624 711.208557,856.797241 
z"/>
<path fill="#000000" opacity="1.000000" stroke="none" 
	d="
M791.041077,868.247131 
	C782.672485,868.223938 782.671875,868.223938 782.674683,860.365601 
	C782.676880,854.224915 782.668518,848.084229 782.691284,841.943604 
	C782.698242,840.073853 782.713257,838.019104 785.312805,837.999451 
	C787.890991,837.979919 788.016479,840.040710 788.036621,841.899109 
	C788.094055,847.209229 788.240112,852.527527 788.018372,857.828613 
	C787.853699,861.765381 789.431213,863.271729 793.273743,862.981567 
	C795.411133,862.820129 797.586853,862.971436 799.730347,863.155701 
	C801.188416,863.281006 802.200256,864.090393 802.123169,865.759705 
	C802.045654,867.437317 800.962341,868.070435 799.488464,868.120911 
	C796.835938,868.211609 794.180176,868.210083 791.041077,868.247131 
z"/>
<path fill="#000000" opacity="1.000000" stroke="none" 
	d="
M463.935852,783.323914 
	C467.110809,783.642273 467.125458,785.758667 467.136444,787.781311 
	C467.176208,795.097351 467.198425,802.413940 467.147797,809.729736 
	C467.134247,811.689270 467.287354,814.074036 464.299927,813.976624 
	C461.710846,813.892273 461.739746,811.796997 461.730377,809.944397 
	C461.691711,802.295715 461.682129,794.646851 461.684052,786.998047 
	C461.684418,785.503113 461.601868,783.915649 463.935852,783.323914 
z"/>
<path fill="#000000" opacity="1.000000" stroke="none" 
	d="
M614.669250,802.971069 
	C614.670349,797.482971 614.645081,792.490417 614.688049,787.498535 
	C614.703369,785.722473 614.335266,783.529175 617.046204,783.377075 
	C619.633911,783.231995 619.948486,785.243225 619.959839,787.121826 
	C620.007080,794.941467 619.992126,802.762146 619.915283,810.581604 
	C619.898254,812.316345 619.408386,814.002075 617.156250,813.995483 
	C614.731445,813.988403 614.758484,812.137512 614.717712,810.455627 
	C614.661377,808.127014 614.682129,805.796631 614.669250,802.971069 
z"/>
<path fill="#000000" opacity="1.000000" stroke="none" 
	d="
M333.998291,811.551880 
	C333.485107,813.827209 332.192749,814.339600 330.536804,813.992371 
	C328.561920,813.578369 328.679169,811.891968 328.676025,810.424561 
	C328.659363,802.637329 328.684021,794.849976 328.707642,787.062622 
	C328.712860,785.342712 328.798309,783.580627 331.137299,783.507324 
	C333.730743,783.426025 334.008850,785.358704 334.021423,787.243103 
	C334.074524,795.195251 334.051178,803.147949 333.998291,811.551880 
z"/>
<path fill="#000000" opacity="1.000000" stroke="none" 
	d="
M530.845642,849.030762 
	C530.883240,845.872803 530.872559,843.206604 530.983521,840.545471 
	C531.044495,839.085388 531.691467,837.967896 533.373413,837.902832 
	C535.297058,837.828430 536.120239,838.989807 536.133423,840.696228 
	C536.196411,848.858398 536.209900,857.021057 536.193298,865.183411 
	C536.190308,866.665466 535.494629,867.838074 533.848450,867.862915 
	C531.656067,867.896057 531.036682,866.305847 530.997925,864.517273 
	C530.889893,859.520935 530.890503,854.522339 530.845642,849.030762 
z"/>
<path fill="#000000" opacity="1.000000" stroke="none" 
	d="
M570.308594,647.275391 
	C574.527649,644.965332 575.746887,648.068665 577.847473,650.954346 
	C570.302734,655.368469 562.696350,658.701965 554.289795,660.433533 
	C558.519897,654.741699 565.178345,652.223633 570.308594,647.275391 
z"/>
<path fill="#000000" opacity="1.000000" stroke="none" 
	d="
M565.654297,833.908813 
	C564.070312,834.888428 562.592468,835.965881 561.426880,834.399292 
	C560.201416,832.752258 561.898682,831.685181 562.938049,830.801758 
	C564.961243,829.082092 566.993042,826.611450 569.950073,829.468567 
	C569.587524,831.960510 567.271240,832.338135 565.654297,833.908813 
z"/>
<path fill="#000000" opacity="1.000000" stroke="none" 
	d="
M725.341431,353.819336 
	C727.786865,390.744843 721.239258,425.490021 705.371216,458.425903 
	C699.550903,470.506744 699.461670,470.471954 687.116028,465.670502 
	C656.848267,453.898743 625.250610,447.480103 593.299255,442.595459 
	C589.206177,441.969666 588.028870,440.303955 588.030151,436.473358 
	C588.041504,400.988831 588.696594,365.482544 587.676208,330.025421 
	C586.471375,288.157562 547.105103,261.750153 517.908630,260.923218 
	C485.973541,260.018677 453.505096,283.185364 444.366974,315.010010 
	C442.232422,322.443970 441.135956,329.881256 441.170868,337.633484 
	C441.317200,370.131348 441.141266,402.630798 441.319061,435.128326 
	C441.345612,439.981201 440.288788,442.182434 434.944244,442.732910 
	C415.547638,444.730682 396.661987,449.711273 377.545227,453.357788 
	C374.755188,453.889984 372.388947,453.652466 369.880737,452.327606 
	C365.727814,450.133942 362.954132,450.988770 361.115051,455.426514 
	C359.820862,458.549438 357.747986,460.102661 354.749847,461.163025 
	C348.162018,463.493103 341.494354,465.671570 335.292816,468.946747 
	C332.513336,470.414642 330.889954,469.938232 329.305237,467.117188 
	C317.670410,446.405579 310.157715,424.295410 306.749115,400.819214 
	C304.642639,386.311218 303.506287,371.779266 304.569427,357.036774 
	C307.764099,312.735687 321.402740,272.333435 348.631073,236.948822 
	C374.985504,202.699844 408.584229,177.892532 449.863678,165.334030 
	C525.589233,142.295990 594.637085,156.334534 654.717163,208.083313 
	C693.675903,241.639679 715.843323,285.146790 723.479126,336.009003 
	C724.343323,341.765381 725.288940,347.509979 725.341431,353.819336 
M526.401978,207.303482 
	C517.916626,205.039444 518.296997,196.216324 514.498291,189.631851 
	C510.980377,194.972794 511.032410,200.803070 507.165344,204.702209 
	C503.334442,208.564896 497.349426,208.185883 492.634247,211.649796 
	C497.725128,214.819122 503.779083,214.252609 507.510895,218.406021 
	C511.103180,222.404160 511.146210,228.356628 515.100769,232.950256 
	C517.126831,221.024246 524.149597,214.299759 536.191223,212.200150 
	C532.978027,208.685959 529.698792,208.877441 526.401978,207.303482 
z"/>
<path fill="#000000" opacity="1.000000" stroke="none" 
	d="
M520.999878,437.378418 
	C502.843811,437.375732 485.187103,437.294098 467.532135,437.432770 
	C463.761078,437.462402 462.121643,436.370453 462.128021,432.375641 
	C462.177094,401.569244 462.127625,370.762543 462.024811,339.956177 
	C461.969177,323.295166 466.127167,308.188171 478.741608,296.579071 
	C494.257874,282.299408 512.573425,277.698822 532.379700,285.042145 
	C551.333618,292.069458 562.891663,306.314117 566.461670,326.592560 
	C567.131836,330.399445 567.278687,334.192963 567.279297,338.024536 
	C567.284241,369.005981 567.198364,399.988098 567.412292,430.968140 
	C567.446655,435.948151 566.127686,437.630157 560.973389,437.492523 
	C547.823914,437.141327 534.658813,437.377228 520.999878,437.378418 
z"/>
<path fill="#000000" opacity="1.000000" stroke="none" 
	d="
M441.512817,549.553955 
	C461.007874,514.357910 485.672913,483.350861 510.598358,452.346832 
	C512.883118,454.241333 512.275085,456.023499 512.276611,457.568329 
	C512.313721,495.685822 512.242981,533.803589 512.385864,571.920532 
	C512.403137,576.544495 511.269226,578.528748 506.257751,578.253601 
	C483.512848,577.005005 461.439941,572.714233 440.090607,564.685120 
	C436.040100,563.161743 434.777679,561.166748 437.221649,557.297485 
	C438.729584,554.910095 439.976410,552.357849 441.512817,549.553955 
z"/>
<path fill="#000000" opacity="1.000000" stroke="none" 
	d="
M596.633362,479.274597 
	C625.237976,495.577911 651.200684,514.283813 656.746338,522.724792 
	C652.236511,527.749146 646.678772,531.667175 641.300781,535.787354 
	C629.899536,544.522095 617.639832,551.849060 604.808105,558.279114 
	C601.160095,560.107056 599.327515,559.345947 597.470764,555.648254 
	C579.340210,519.541443 555.268616,487.545441 528.923950,457.134033 
	C526.333618,454.143829 522.040588,452.290192 521.791504,446.234436 
	C547.702576,455.891235 572.750366,465.751282 596.633362,479.274597 
z"/>
<path fill="#000000" opacity="1.000000" stroke="none" 
	d="
M517.777466,563.984802 
	C517.776611,526.811035 517.776611,490.134918 517.776611,452.896057 
	C522.797119,455.993591 525.025818,460.624084 528.062195,464.465881 
	C551.212097,493.756927 573.896729,523.376526 591.186035,556.686157 
	C594.404419,562.886841 594.490234,562.913269 587.939575,565.379517 
	C567.852295,572.941895 547.071899,577.250977 525.636230,578.208435 
	C518.005737,578.549194 517.830200,578.159729 517.788086,570.480469 
	C517.777161,568.481201 517.781128,566.481750 517.777466,563.984802 
z"/>
<path fill="#000000" opacity="1.000000" stroke="none" 
	d="
M429.165833,482.097961 
	C454.751373,467.921814 481.374664,456.998352 508.002899,446.086151 
	C508.263000,446.500916 508.523071,446.915649 508.783173,447.330383 
	C503.940125,452.694214 499.031952,458.000885 494.264954,463.431488 
	C469.779572,491.325256 448.699310,521.552917 432.259186,554.884277 
	C430.087036,559.288208 428.056366,559.721680 423.841400,557.640259 
	C406.261322,548.959167 390.265228,538.022217 375.472107,525.197083 
	C371.994324,522.181885 372.755615,520.283997 375.842651,517.777710 
	C392.424774,504.315125 409.966919,492.304901 429.165833,482.097961 
z"/>
<path fill="#000000" opacity="1.000000" stroke="none" 
	d="
M614.024048,451.677521 
	C638.895996,456.709930 663.117737,462.456879 686.488220,471.413910 
	C696.501709,475.251709 696.555420,474.974579 690.604004,483.874298 
	C682.991577,495.257904 674.282593,505.713104 664.659790,515.455017 
	C662.196411,517.948792 660.556763,518.481384 657.733887,515.893066 
	C628.040833,488.666626 593.428345,469.409515 556.551025,453.892426 
	C551.037537,451.572479 545.359924,449.643066 539.762024,447.522919 
	C538.753235,447.140839 537.329834,447.300873 537.148071,444.929810 
	C562.984802,443.780884 588.310059,447.439697 614.024048,451.677521 
z"/>
<path fill="#000000" opacity="1.000000" stroke="none" 
	d="
M462.742004,457.818909 
	C434.004059,471.657501 406.692749,487.145935 381.787567,506.608337 
	C378.120819,509.473724 374.574799,512.517090 371.181671,515.700562 
	C368.985321,517.761230 367.225098,517.688599 365.228119,515.619507 
	C354.452393,504.454620 344.534485,492.628174 336.401367,479.345795 
	C333.981598,475.394073 336.055817,474.199127 339.239868,472.865753 
	C358.492188,464.803253 378.528107,459.324097 398.831726,454.761627 
	C428.946167,447.994537 459.537842,445.273987 490.321869,444.309845 
	C490.771667,444.295746 491.230621,444.573822 492.869049,445.084564 
	C482.240936,449.345703 472.455475,453.045715 462.742004,457.818909 
z"/>
</svg>